<?xml version="1.0" encoding="UTF-8" standalone="no"?>
<svg
   xmlns:dc="http://purl.org/dc/elements/1.1/"
   xmlns:cc="http://creativecommons.org/ns#"
   xmlns:rdf="http://www.w3.org/1999/02/22-rdf-syntax-ns#"
   xmlns:svg="http://www.w3.org/2000/svg"
   xmlns="http://www.w3.org/2000/svg"
   viewBox="0 0 816 1056"
   height="1056"
   width="816"
   xml:space="preserve"
   id="svg2"
   version="1.1"><metadata
     id="metadata8"><rdf:RDF><cc:Work
         rdf:about=""><dc:format>image/svg+xml</dc:format><dc:type
           rdf:resource="http://purl.org/dc/dcmitype/StillImage" /></cc:Work></rdf:RDF></metadata><defs
     id="defs6"><clipPath
       id="clipPath18"
       clipPathUnits="userSpaceOnUse"><path
         style="clip-rule:evenodd"
         id="path16"
         d="M 9.12e-6,0 H 612.00001 V 792 H 9.12e-6 Z" /></clipPath><clipPath
       id="clipPath30"
       clipPathUnits="userSpaceOnUse"><path
         style="clip-rule:evenodd"
         id="path28"
         d="M 9.12e-6,0 H 612.00001 V 792 H 9.12e-6 Z" /></clipPath><clipPath
       id="clipPath38"
       clipPathUnits="userSpaceOnUse"><path
         style="clip-rule:evenodd"
         id="path36"
         d="M 9.12e-6,0 H 612.00001 V 792 H 9.12e-6 Z" /></clipPath><clipPath
       id="clipPath50"
       clipPathUnits="userSpaceOnUse"><path
         style="clip-rule:evenodd"
         id="path48"
         d="M 9.12e-6,0 H 612.00001 V 792 H 9.12e-6 Z" /></clipPath><clipPath
       id="clipPath58"
       clipPathUnits="userSpaceOnUse"><path
         style="clip-rule:evenodd"
         id="path56"
         d="M 9.12e-6,0 H 612.00001 V 792 H 9.12e-6 Z" /></clipPath><clipPath
       id="clipPath66"
       clipPathUnits="userSpaceOnUse"><path
         style="clip-rule:evenodd"
         id="path64"
         d="M 9.12e-6,0 H 612.00001 V 792 H 9.12e-6 Z" /></clipPath><clipPath
       id="clipPath78"
       clipPathUnits="userSpaceOnUse"><path
         style="clip-rule:evenodd"
         id="path76"
         d="M 9.12e-6,0 H 612.00001 V 792 H 9.12e-6 Z" /></clipPath><clipPath
       id="clipPath86"
       clipPathUnits="userSpaceOnUse"><path
         style="clip-rule:evenodd"
         id="path84"
         d="M 9.12e-6,0 H 612.00001 V 792 H 9.12e-6 Z" /></clipPath><clipPath
       id="clipPath94"
       clipPathUnits="userSpaceOnUse"><path
         style="clip-rule:evenodd"
         id="path92"
         d="M 9.12e-6,0 H 612.00001 V 792 H 9.12e-6 Z" /></clipPath><clipPath
       id="clipPath106"
       clipPathUnits="userSpaceOnUse"><path
         style="clip-rule:evenodd"
         id="path104"
         d="M 9.12e-6,0 H 612.00001 V 792 H 9.12e-6 Z" /></clipPath><clipPath
       id="clipPath114"
       clipPathUnits="userSpaceOnUse"><path
         style="clip-rule:evenodd"
         id="path112"
         d="M 9.12e-6,0 H 612.00001 V 792 H 9.12e-6 Z" /></clipPath><clipPath
       id="clipPath122"
       clipPathUnits="userSpaceOnUse"><path
         style="clip-rule:evenodd"
         id="path120"
         d="M 9.12e-6,0 H 612.00001 V 792 H 9.12e-6 Z" /></clipPath><clipPath
       id="clipPath130"
       clipPathUnits="userSpaceOnUse"><path
         style="clip-rule:evenodd"
         id="path128"
         d="M 9.12e-6,0 H 612.00001 V 792 H 9.12e-6 Z" /></clipPath><clipPath
       id="clipPath142"
       clipPathUnits="userSpaceOnUse"><path
         style="clip-rule:evenodd"
         id="path140"
         d="M 9.12e-6,0 H 612.00001 V 792 H 9.12e-6 Z" /></clipPath><clipPath
       id="clipPath150"
       clipPathUnits="userSpaceOnUse"><path
         style="clip-rule:evenodd"
         id="path148"
         d="M 9.12e-6,0 H 612.00001 V 792 H 9.12e-6 Z" /></clipPath><clipPath
       id="clipPath158"
       clipPathUnits="userSpaceOnUse"><path
         style="clip-rule:evenodd"
         id="path156"
         d="M 9.12e-6,0 H 612.00001 V 792 H 9.12e-6 Z" /></clipPath><clipPath
       id="clipPath170"
       clipPathUnits="userSpaceOnUse"><path
         style="clip-rule:evenodd"
         id="path168"
         d="M 9.12e-6,0 H 612.00001 V 792 H 9.12e-6 Z" /></clipPath></defs><g
     transform="matrix(1.3333333,0,0,-1.3333333,0,1056)"
     id="g10"><g
       id="g12"><g
         clip-path="url(#clipPath18)"
         id="g14"><text
           id="text22"
           style="font-variant:normal;font-weight:normal;font-size:10.56000042px;font-family:'Courier 10 Pitch';-inkscape-font-specification:CourierNewPSMT;writing-mode:lr-tb;fill:#000000;fill-opacity:1;fill-rule:nonzero;stroke:none"
           transform="matrix(1,0,0,-1,75.024,710.98)"><tspan
             id="tspan20"
             y="0"
             x="0 6.336 12.71424 18.9552 25.291201 31.55328 37.889278 44.15136 50.487358 56.749439 63.085442 69.347519 75.683517">Kuldeep Bise </tspan></text>
</g></g><g
       id="g24"><g
         clip-path="url(#clipPath30)"
         id="g26" /></g><g
       id="g32"><g
         clip-path="url(#clipPath38)"
         id="g34"><text
           id="text42"
           style="font-variant:normal;font-weight:normal;font-size:10.56000042px;font-family:'Courier 10 Pitch';-inkscape-font-specification:CourierNewPSMT;writing-mode:lr-tb;fill:#000000;fill-opacity:1;fill-rule:nonzero;stroke:none"
           transform="matrix(1,0,0,-1,75.024,699.1)"><tspan
             id="tspan40"
             y="0"
             x="0 6.336 12.71424 18.9552 25.291201 31.55328 37.889278 44.15136 50.487358 56.749439 63.085442 69.347519 75.683517 81.945602 88.281601 94.543678 100.87968 107.14176 113.47776 119.73984 126.07584 132.45409 138.69504 145.03104 151.29312 157.62912">Full Stack Java developer </tspan></text>
</g></g><g
       id="g44"><g
         clip-path="url(#clipPath50)"
         id="g46" /></g><g
       id="g52"><g
         clip-path="url(#clipPath58)"
         id="g54" /></g><g
       id="g60"><g
         clip-path="url(#clipPath66)"
         id="g62"><text
           id="text70"
           style="font-variant:normal;font-weight:normal;font-size:10.56000042px;font-family:'Courier 10 Pitch';-inkscape-font-specification:CourierNewPSMT;writing-mode:lr-tb;fill:#000000;fill-opacity:1;fill-rule:nonzero;stroke:none"
           transform="matrix(1,0,0,-1,75.024,675.34)"><tspan
             id="tspan68"
             y="0"
             x="0 6.336 12.71424 18.9552 25.291201 31.55328 37.889278 44.15136 50.487358 56.749439 63.085442 69.347519 75.683517 81.945602 88.281601 94.543678 100.87968 107.14176 113.47776 119.73984 126.07584 132.45409">Current Org: JP Morgan</tspan></text>
</g></g><g
       id="g72"><g
         clip-path="url(#clipPath78)"
         id="g74" /></g><g
       id="g80"><g
         clip-path="url(#clipPath86)"
         id="g82" /></g><g
       id="g88"><g
         clip-path="url(#clipPath94)"
         id="g90"><text
           id="text98"
           style="font-variant:normal;font-weight:normal;font-size:10.56000042px;font-family:'Courier 10 Pitch';-inkscape-font-specification:CourierNewPSMT;writing-mode:lr-tb;fill:#000000;fill-opacity:1;fill-rule:nonzero;stroke:none"
           transform="matrix(1,0,0,-1,75.024,651.46)"><tspan
             id="tspan96"
             y="0"
             x="0 6.336 12.71424 18.9552 25.291201 31.55328 37.889278 44.15136 50.487358 56.749439 63.085442 69.347519">Technology: </tspan></text>
</g></g><g
       id="g100"><g
         clip-path="url(#clipPath106)"
         id="g102" /></g><g
       id="g108"><g
         clip-path="url(#clipPath114)"
         id="g110" /></g><g
       id="g116"><g
         clip-path="url(#clipPath122)"
         id="g118" /></g><g
       id="g124"><g
         clip-path="url(#clipPath130)"
         id="g126"><text
           id="text134"
           style="font-variant:normal;font-weight:normal;font-size:10.56000042px;font-family:'Courier 10 Pitch';-inkscape-font-specification:CourierNewPSMT;writing-mode:lr-tb;fill:#000000;fill-opacity:1;fill-rule:nonzero;stroke:none"
           transform="matrix(1,0,0,-1,111.02,627.7)"><tspan
             id="tspan132"
             y="0"
             x="0 6.336 12.71424 18.9552 25.291201 31.55328 37.889278 44.15136 50.487358 56.749439 63.085442 69.347519 75.683517 81.945602 88.281601 94.543678 100.87968 107.14176 113.47776 119.73984 126.07584 132.45409 138.69504 145.03104 151.29312 157.62912 163.8912 170.2272 176.48927 182.82529 189.08736 195.42336 201.68544 208.02144 214.28352 220.61952 226.88161 233.21761 239.47968 245.81567 252.19392 258.43488 264.77087 271.03296 277.36896 283.63104 289.96704 296.22913 302.56512 308.82721 315.16321 321.42529 327.76129 334.02335">BackEnd: Java , Spring, Hibernate, Grools, Unix, linux</tspan></text>
</g></g><g
       id="g136"><g
         clip-path="url(#clipPath142)"
         id="g138" /></g><g
       id="g144"><g
         clip-path="url(#clipPath150)"
         id="g146" /></g><g
       id="g152"><g
         clip-path="url(#clipPath158)"
         id="g154"><text
           id="text162"
           style="font-variant:normal;font-weight:normal;font-size:10.56000042px;font-family:'Courier 10 Pitch';-inkscape-font-specification:CourierNewPSMT;writing-mode:lr-tb;fill:#000000;fill-opacity:1;fill-rule:nonzero;stroke:none"
           transform="matrix(1,0,0,-1,111.02,615.82)"><tspan
             id="tspan160"
             y="0"
             x="0 6.336 12.71424 18.9552 25.291201 31.55328 37.889278 44.15136 50.487358 56.749439 63.085442 69.347519 75.683517 81.945602 88.281601 94.543678 100.87968 107.14176 113.47776 119.73984 126.07584 132.45409 138.69504 145.03104 151.29312 157.62912 163.8912 170.2272 176.48927 182.82529 189.08736 195.42336 201.68544 208.02144 214.28352 220.61952 226.88161 233.21761 239.47968 245.81567 252.19392 258.43488 264.77087 271.03296 277.36896 283.63104 289.96704 296.22913 302.56512 308.82721 315.16321 321.42529 327.76129 334.02335 340.35938 346.62143 352.95743 359.21951 365.55551 371.93375 378.17471 384.51071 390.7728 397.1088 403.37088 409.70688 415.96896">FrontEnd: Angular, Java Script, TypeScript, ReactJs,HTML, CSS, SCSS</tspan></text>
</g></g><g
       id="g164"><g
         clip-path="url(#clipPath170)"
         id="g166" /></g></g></svg>